<?xml version="1.0" standalone="no"?><!-- Generator: Gravit.io --><svg xmlns="http://www.w3.org/2000/svg" xmlns:xlink="http://www.w3.org/1999/xlink" style="isolation:isolate" viewBox="0 0 450 450" width="450" height="450"><defs><clipPath id="_clipPath_aRIPBE5x3avOgCWjJEW1gLbyPYNkjLdE"><rect width="450" height="450"/></clipPath></defs><g clip-path="url(#_clipPath_aRIPBE5x3avOgCWjJEW1gLbyPYNkjLdE)"><g id="Group"><path d=" M 195.343 71.771 L 215.114 71.771 L 215.114 180.514 L 195.343 180.514 L 195.343 71.771 Z  M 363.4 318.914 L 56.943 318.914 L 56.943 279.371 C 56.943 249.714 37.171 239.829 37.171 239.829 L 37.171 220.057 L 412.829 220.057 L 412.829 239.829 C 412.829 239.829 363.4 269.486 363.4 292.075 L 363.4 318.914 Z " fill="rgb(69,90,100)"/><path d=" M 56.943 289.257 L 56.943 338.686 L 363.4 338.686 L 363.4 289.257 L 56.943 289.257 Z  M 353.514 249.714 C 353.514 255.201 349.115 259.6 343.629 259.6 L 323.857 259.6 C 318.371 259.6 313.971 255.201 313.971 249.714 C 313.971 244.228 318.371 239.829 323.857 239.829 L 343.629 239.829 C 349.115 239.829 353.514 244.228 353.514 249.714 Z " fill="rgb(38,50,56)"/><path d=" M 225 140.971 L 126.143 140.971 L 96.486 180.514 L 96.486 200.286 L 225 200.286 L 225 140.971 Z  M 195.343 52 L 215.114 52 L 234.886 71.771 L 234.886 91.543 L 175.571 91.543 L 175.571 71.771 L 195.343 52 Z  M 155.8 101.429 L 254.657 101.429 L 254.657 131.086 L 155.8 131.086 L 155.8 101.429 Z " fill="rgb(120,144,156)"/><path d=" M 343.629 220.057 L 343.629 200.286 L 313.971 160.743 L 195.343 160.743 L 195.343 220.057 L 343.629 220.057 Z " fill="rgb(120,144,156)"/><path d=" M 225 180.514 L 244.771 180.514 L 244.771 200.286 L 225 200.286 L 225 180.514 Z  M 136.029 160.743 L 155.8 160.743 L 155.8 180.514 L 136.029 180.514 L 136.029 160.743 Z  M 264.543 180.514 L 284.314 180.514 L 284.314 200.286 L 264.543 200.286 L 264.543 180.514 Z " fill="rgb(55,71,79)"/><path d=" M 106.371 200.286 L 195.343 200.286 L 195.343 220.057 L 106.371 220.057 L 106.371 200.286 Z " fill="rgb(84,110,122)"/><path d=" M 254.657 140.971 L 195.343 140.971 C 175.571 140.971 175.571 160.743 175.571 160.743 L 175.571 220.057 L 195.343 220.057 L 195.343 160.743 L 254.657 160.743 L 254.657 140.971 Z  M 333.199 186.386 L 405.108 170.401 L 400.778 151.085 L 320.19 169.007 L 333.199 186.386 Z  M 114.181 156.917 L 59.632 141.367 L 54.234 160.367 L 101.458 173.881 L 114.181 156.917 Z " fill="rgb(84,110,122)"/><path d=" M 422.714 318.914 C 393.057 318.914 383.171 299.143 383.171 299.143 C 383.171 299.143 373.286 318.914 343.629 318.914 C 313.971 318.914 304.086 299.143 304.086 299.143 C 304.086 299.143 294.2 318.914 264.543 318.914 C 234.886 318.914 225 299.143 225 299.143 C 225 299.143 215.114 318.914 185.457 318.914 C 155.8 318.914 145.914 299.143 145.914 299.143 C 145.914 299.143 136.029 318.914 106.371 318.914 C 76.714 318.914 66.829 299.143 66.829 299.143 C 66.829 299.143 56.943 318.914 27.286 318.914 L 27.286 398 L 422.714 398 L 422.714 318.914 Z " fill="rgb(144,202,249)"/><path d=" M 422.714 358.457 C 393.057 358.457 383.171 338.686 383.171 338.686 C 383.171 338.686 373.286 358.457 343.629 358.457 C 313.971 358.457 304.086 338.686 304.086 338.686 C 304.086 338.686 294.2 358.457 264.543 358.457 C 234.886 358.457 225 338.686 225 338.686 C 225 338.686 215.114 358.457 185.457 358.457 C 155.8 358.457 145.914 338.686 145.914 338.686 C 145.914 338.686 136.029 358.457 106.371 358.457 C 76.714 358.457 66.829 338.686 66.829 338.686 C 66.829 338.686 56.943 358.457 27.286 358.457 L 27.286 398 L 422.714 398 L 422.714 358.457 Z " fill="rgb(33,150,243)"/></g></g></svg>