<?xml version="1.0" standalone="no"?>
<!DOCTYPE svg PUBLIC "-//W3C//DTD SVG 20010904//EN"
 "http://www.w3.org/TR/2001/REC-SVG-20010904/DTD/svg10.dtd">
<svg version="1.0" xmlns="http://www.w3.org/2000/svg"
 width="512.000000pt" height="512.000000pt" viewBox="0 0 512.000000 512.000000"
 preserveAspectRatio="xMidYMid meet">
<metadata>
Created by potrace 1.11, written by Peter Selinger 2001-2013
</metadata>
<g transform="translate(0.000000,512.000000) scale(0.100000,-0.100000)"
fill="#000000" stroke="none">
<path d="M1618 4760 c-12 -3 -33 -21 -46 -40 -21 -31 -23 -45 -21 -143 1 -60
-3 -112 -7 -117 -9 -8 -179 -68 -433 -153 -150 -51 -184 -77 -196 -152 -5 -27
-10 -54 -11 -60 -7 -24 -15 -63 -20 -95 -3 -19 -7 -43 -10 -52 -3 -9 -7 -26
-9 -38 -6 -33 -75 -377 -80 -397 -2 -10 -18 -88 -35 -173 -18 -85 -34 -164
-36 -175 -3 -11 -9 -42 -14 -70 -6 -27 -12 -59 -14 -70 -3 -11 -29 -141 -60
-290 -30 -148 -57 -282 -60 -297 -3 -16 -8 -40 -11 -55 -3 -16 -12 -59 -21
-98 -8 -38 -17 -81 -19 -95 -6 -31 -44 -218 -50 -245 -2 -11 -16 -80 -31 -154
-25 -126 -25 -136 -10 -167 13 -28 207 -297 226 -314 4 -3 33 -41 65 -85 33
-44 62 -82 65 -85 3 -3 113 -149 244 -325 132 -176 242 -322 246 -325 3 -3 21
-26 39 -51 52 -73 68 -77 165 -32 140 66 205 105 212 127 23 67 8 111 -115
334 -22 39 -37 73 -33 73 4 1 33 2 64 3 66 2 101 27 113 79 4 18 9 37 10 42
68 248 77 301 77 432 0 72 -3 142 -7 154 -4 12 -22 42 -41 66 -33 43 -34 48
-34 132 0 139 13 166 189 406 16 22 45 57 63 78 l34 37 17 -82 c10 -46 20 -92
22 -103 3 -11 18 -78 35 -150 16 -71 57 -251 90 -400 87 -391 86 -387 129
-404 16 -6 141 -10 326 -9 330 1 334 2 359 62 11 27 21 65 33 131 2 11 10 47
18 80 8 33 46 202 85 375 39 173 81 357 93 408 l21 94 39 -44 c21 -23 54 -68
74 -98 20 -30 60 -86 88 -125 67 -89 82 -136 80 -251 -1 -89 -2 -93 -40 -148
l-39 -56 -3 -131 c-2 -94 1 -150 13 -197 8 -37 17 -74 19 -82 5 -23 24 -101
36 -145 36 -133 56 -153 151 -150 l57 1 -66 -125 c-95 -178 -96 -181 -100
-218 -8 -71 16 -94 163 -167 125 -61 136 -65 164 -53 25 10 200 235 590 757
10 14 85 113 166 219 195 258 204 272 199 324 -2 23 -7 53 -9 67 -3 14 -8 36
-11 50 -3 14 -7 34 -9 45 -3 11 -13 63 -24 115 -11 52 -24 113 -28 135 -4 22
-8 45 -10 50 -2 11 -84 410 -90 440 -4 20 -9 45 -20 95 -3 14 -8 39 -10 55 -3
17 -16 80 -29 140 -13 61 -26 124 -29 140 -3 17 -33 163 -66 325 -33 162 -62
306 -65 320 -10 53 -104 506 -110 533 -8 28 -54 70 -90 80 -11 3 -112 37 -225
77 -113 39 -225 78 -250 87 -25 8 -49 19 -55 24 -5 6 -10 58 -11 117 -1 125
-16 167 -64 179 -38 10 -727 9 -758 -1 -42 -14 -55 -59 -57 -201 -1 -110 2
-140 21 -192 l21 -62 -228 0 -229 0 19 49 c25 66 30 313 7 358 -29 57 -18 55
-411 56 -200 1 -374 -1 -387 -4z"/>
</g>
</svg>
