<?xml version="1.0" encoding="UTF-8" standalone="no"?>
<!-- Created with Inkscape (http://www.inkscape.org/) -->

<svg
   id="svg2"
   sodipodi:docname="tach.svg"
   inkscape:export-filename="F:\Aviation\Cessna 736RY\SVGs\Width 3.125\Cessna Tachometer.png"
   viewBox="0 0 281.25 281.25"
   sodipodi:version="0.32"
   inkscape:export-xdpi="90"
   version="1.0"
   inkscape:output_extension="org.inkscape.output.svg.inkscape"
   inkscape:export-ydpi="90"
   inkscape:version="1.2.2 (732a01da63, 2022-12-09)"
   xmlns:inkscape="http://www.inkscape.org/namespaces/inkscape"
   xmlns:sodipodi="http://sodipodi.sourceforge.net/DTD/sodipodi-0.dtd"
   xmlns="http://www.w3.org/2000/svg"
   xmlns:svg="http://www.w3.org/2000/svg"
   xmlns:rdf="http://www.w3.org/1999/02/22-rdf-syntax-ns#"
   xmlns:cc="http://creativecommons.org/ns#"
   xmlns:dc="http://purl.org/dc/elements/1.1/">
  <defs
     id="defs65" />
  <sodipodi:namedview
     id="base"
     bordercolor="#666666"
     inkscape:pageshadow="2"
     guidetolerance="10"
     pagecolor="#ffffff"
     gridtolerance="10000"
     inkscape:window-height="2054"
     inkscape:zoom="5.4076396"
     objecttolerance="10"
     showgrid="false"
     borderopacity="1.0"
     inkscape:current-layer="layer1"
     inkscape:cx="322.69162"
     inkscape:cy="111.50891"
     inkscape:window-y="-11"
     inkscape:window-x="-11"
     inkscape:window-width="5120"
     inkscape:pageopacity="0.0"
     inkscape:document-units="px"
     inkscape:showpageshadow="2"
     inkscape:pagecheckerboard="0"
     inkscape:deskcolor="#d1d1d1"
     inkscape:window-maximized="1" />
  <g
     id="layer1"
     inkscape:label="Layer 1"
     inkscape:groupmode="layer"
     transform="translate(-231.42 -28.079)">
    <path
       id="path2221"
       sodipodi:rx="69.614906"
       sodipodi:ry="66.952042"
       style="stroke-linejoin:round;fill-rule:evenodd;stroke:#0c0909;stroke-width:3;fill:#1a1a1a"
       sodipodi:type="arc"
       d="m153.69 133.29a69.615 66.952 0 1 1 -139.23 0 69.615 66.952 0 1 1 139.23 0z"
       transform="matrix(1.9766 0 0 2.0552 205.87 -105.24)"
       sodipodi:cy="133.29323"
       sodipodi:cx="84.070465" />
    <path
       id="path8077"
       style="fill-rule:evenodd;stroke:#ffffff;stroke-width:3.198;fill:#333333"
       d="m278.5 173.13l13.23 0.21" />
    <path
       id="path2354"
       sodipodi:rx="107.7061"
       sodipodi:ry="93.851395"
       style="opacity:.5;stroke-linejoin:round;stroke:#00ff00;stroke-width:15.45;fill:none"
       sodipodi:type="arc"
       d="m223.42 62.838a107.71 93.851 0 0 1 40.02 37.064"
       sodipodi:open="true"
       transform="matrix(.78855 0 -.029079 .93299 242.1 39.343)"
       sodipodi:cy="143.27406"
       sodipodi:cx="167.92366"
       sodipodi:end="5.8027834"
       sodipodi:start="5.2536505" />
    <path
       id="path3517"
       sodipodi:rx="107.7061"
       sodipodi:ry="93.851395"
       style="stroke-linejoin:round;stroke:#ffff00;stroke-width:15.45;fill:none"
       sodipodi:type="arc"
       d="m258.98 93.141a107.71 93.851 0 0 1 12.2 23.439"
       sodipodi:open="true"
       transform="matrix(.78855 0 -.029079 .93299 245.11 45.227)"
       sodipodi:cy="143.27406"
       sodipodi:cx="167.92366"
       sodipodi:end="5.9947696"
       sodipodi:start="5.7196534" />
    <rect
       id="rect5142"
       style="opacity:.7;fill-rule:evenodd;stroke:#ffffff;stroke-width:4.2022;fill:#333333"
       ry=".91921"
       height="21.362"
       width="114.4"
       y="211.83"
       x="314.89" />
    <path
       id="path7082"
       style="fill-rule:evenodd;stroke:#ffffff;stroke-width:4.8491;fill:#333333"
       d="m399.09 78.574l-6.11 20.111" />
    <path
       id="path7084"
       style="fill-rule:evenodd;stroke:#ffffff;stroke-width:4.8491;fill:#333333"
       d="m334.81 81.088l8.26 19.752" />
    <path
       id="path7086"
       style="fill-rule:evenodd;stroke:#ffffff;stroke-width:4.8491;fill:#333333"
       d="m287.04 122.39l17.96 11.13" />
    <path
       id="path7088"
       style="fill-rule:evenodd;stroke:#ffffff;stroke-width:4.8491;fill:#333333"
       d="m275.19 185.95l21.91-2.15" />
    <path
       id="path7090"
       style="fill-rule:evenodd;stroke:#ffffff;stroke-width:4.8491;fill:#333333"
       d="m450.8 117l-17.95 12.57" />
    <path
       id="path7092"
       style="stroke:#ffffff;stroke-width:2.5677;fill:none"
       d="m458.34 141.14l-12.46 4.63" />
    <path
       id="path8065"
       style="fill-rule:evenodd;stroke:#ffffff;stroke-width:5.3097;fill:#333333"
       d="m430.75 227.22l12.19 11.01" />
    <path
       id="path8067"
       style="fill-rule:evenodd;stroke:#ffffff;stroke-width:4.8491;fill:#333333"
       d="m446.13 178.41l21.91 0.36" />
    <path
       id="path8069"
       style="fill-rule:evenodd;stroke:#ffffff;stroke-width:3.2004;fill:#333333"
       d="m309.26 222.64l-10.11 7.83" />
    <path
       id="path8071"
       style="fill-rule:evenodd;stroke:#ffffff;stroke-width:3.2004;fill:#333333"
       d="m303.28 214.18l-10.73 6.39" />
    <path
       id="path8073"
       style="fill-rule:evenodd;stroke:#ffffff;stroke-width:3.2004;fill:#333333"
       d="m298.53 204.07l-11.96 5.57" />
    <path
       id="path8075"
       style="fill-rule:evenodd;stroke:#ffffff;stroke-width:3.2004;fill:#333333"
       d="m282.45 197.68l12.16-3.3" />
    <path
       id="path8079"
       style="fill-rule:evenodd;stroke:#ffffff;stroke-width:3.2004;fill:#333333"
       d="m279.71 160.43l13 1.65" />
    <path
       id="path8081"
       style="fill-rule:evenodd;stroke:#ffffff;stroke-width:3.2418;fill:#333333"
       d="m282.45 148.52l12.67 2.85" />
    <path
       id="path8083"
       style="fill-rule:evenodd;stroke:#ffffff;stroke-width:3.4314;fill:#333333"
       d="m286.71 136.75l11.94 5.3" />
    <path
       id="path8085"
       style="fill-rule:evenodd;stroke:#ffffff;stroke-width:3.273;fill:#333333"
       d="m298.99 115.9l10.34 8.02" />
    <path
       id="path8087"
       style="fill-rule:evenodd;stroke:#ffffff;stroke-width:3.2933;fill:#333333"
       d="m306.75 107.04l9.34 9.13" />
    <path
       id="path8089"
       style="fill-rule:evenodd;stroke:#ffffff;stroke-width:3.236;fill:#333333"
       d="m316.08 98.67l7.92 10.43" />
    <path
       id="path8091"
       style="fill-rule:evenodd;stroke:#ffffff;stroke-width:3.334;fill:#333333"
       d="m326.15 91.875l6.66 11.175" />
    <path
       id="path8093"
       style="fill-rule:evenodd;stroke:#ffffff;stroke-width:3.2484;fill:#333333"
       d="m348.97 82.16l3.25 12.722" />
    <path
       id="path8095"
       style="fill-rule:evenodd;stroke:#ffffff;stroke-width:3.2262;fill:#333333"
       d="m360.33 79.778l1.2 13.012" />
    <path
       id="path8099"
       style="fill-rule:evenodd;stroke:#ffffff;stroke-width:3.3781;fill:#333333"
       d="m371.96 78.819v13.098" />
    <path
       id="path8101"
       style="fill-rule:evenodd;stroke:#ffffff;stroke-width:3.2557;fill:#333333"
       d="m384.93 79.701l-1.18 12.959" />
    <path
       id="path8103"
       style="fill-rule:evenodd;stroke:#ffffff;stroke-width:3.2353;fill:#333333"
       d="m409.69 86.725l-6.04 11.677" />
    <path
       id="path8105"
       style="fill-rule:evenodd;stroke:#ffffff;stroke-width:3.2004;fill:#333333"
       d="m420.9 92.952l-7.01 11.138" />
    <path
       id="path8107"
       style="fill-rule:evenodd;stroke:#ffffff;stroke-width:3.2254;fill:#333333"
       d="m431.02 100.7l-8.8 9.68" />
    <path
       id="path8109"
       style="fill-rule:evenodd;stroke:#ffffff;stroke-width:3.2538;fill:#333333"
       d="m439.66 109.62l-9.69 8.74" />
    <path
       id="path8111"
       style="fill-rule:evenodd;stroke:#ffffff;stroke-width:3.3217;fill:#333333"
       d="m441.25 136.46l11.9-6.23" />
    <path
       id="path8113"
       style="fill-rule:evenodd;stroke:#f50a0a;stroke-width:3.9697;fill:#333333"
       d="m445.25 158.57l23.65-6.07" />
    <path
       id="path8115"
       style="fill-rule:evenodd;stroke:#ffffff;stroke-width:3.2004;fill:#333333"
       d="m450.76 167.36l12.99-0.42" />
    <path
       id="path8119"
       style="fill-rule:evenodd;stroke:#ffffff;stroke-width:3.2004;fill:#333333"
       d="m449.11 189.43l13.2 1.85" />
    <path
       id="path8125"
       style="fill-rule:evenodd;stroke:#ffffff;stroke-width:3.2004;fill:#333333"
       d="m446.84 199.33l11.55 4.33" />
    <path
       id="path8127"
       style="fill-rule:evenodd;stroke:#ffffff;stroke-width:3.2004;fill:#333333"
       d="m442.92 209.43l11.34 5.57" />
    <path
       id="path8129"
       style="fill-rule:evenodd;stroke:#ffffff;stroke-width:3.2004;fill:#333333"
       d="m437.14 219.13l10.52 7.22" />
    <rect
       id="rect21189"
       style="opacity:.7;fill-rule:evenodd;fill:#4d4d4d"
       ry=".99389"
       height="16.852"
       width="109.83"
       y="214.08"
       x="317.08" />
    <path
       id="path8063"
       style="fill-rule:evenodd;stroke:#ffffff;stroke-width:4.8491;fill:#333333"
       d="m299.25 237.99l71.11-61.05" />
    <path
       id="path12976"
       style="fill-rule:evenodd;stroke:#ffffff;stroke-width:2.9628;fill:#333333"
       d="m317.64 227.24l43.45-37.3" />
    <path
       id="path13947"
       style="fill-rule:evenodd;stroke:#ffffff;stroke-width:2.9628;fill:#333333"
       d="m312.72 221.3l43.45-37.31" />
    <path
       id="flowRoot16874"
       style="stroke:#ffffff;fill:#ffffff"
       transform="matrix(1.0465 0 0 1.1164 266.27 -10.965)"
       d="m79.402 134.73v-12.89h6.636c1.231 0 2.171 0.11 2.821 0.32 0.651 0.21 1.175 0.6 1.574 1.17 0.398 0.57 0.597 1.27 0.597 2.09 0 0.72-0.152 1.33-0.457 1.85-0.304 0.52-0.723 0.94-1.257 1.26-0.339 0.21-0.805 0.38-1.397 0.51 0.475 0.16 0.82 0.32 1.037 0.48 0.147 0.1 0.359 0.33 0.637 0.67 0.279 0.35 0.465 0.62 0.558 0.8l1.925 3.74h-4.5l-2.127-3.94c-0.269-0.51-0.51-0.84-0.72-0.99-0.288-0.2-0.613-0.3-0.976-0.3h-0.352v5.23h-3.999zm3.999-7.67h1.679c0.182 0 0.533-0.05 1.055-0.17 0.263-0.05 0.479-0.19 0.646-0.41 0.167-0.21 0.25-0.46 0.25-0.74 0-0.42-0.132-0.74-0.395-0.96-0.264-0.22-0.759-0.33-1.486-0.33h-1.749v2.61zm9.923-5.22h6.618c1.438 0 2.518 0.35 3.238 1.03 0.72 0.69 1.08 1.66 1.08 2.93 0 1.3-0.39 2.32-1.18 3.05-0.78 0.73-1.97 1.1-3.577 1.1h-2.18v4.78h-3.999v-12.89zm3.999 5.5h0.976c0.767 0 1.306-0.14 1.617-0.4 0.314-0.27 0.464-0.61 0.464-1.03 0-0.4-0.13-0.74-0.402-1.03-0.27-0.28-0.777-0.42-1.521-0.42h-1.134v2.88zm8.987-5.5h5.23l2.03 7.84 2.01-7.84h5.22v12.89h-3.25v-9.83l-2.53 9.83h-2.94l-2.51-9.83v9.83h-3.26v-12.89z" />
    <path
       id="flowRoot16882"
       style="stroke:#ffffff;fill:#ffffff"
       transform="matrix(.65585 0 0 .84377 330.94 21.739)"
       d="m38.727 144.54h3.898l2.031 3.53 1.969-3.53h3.859l-3.562 5.55 3.898 5.9h-3.976l-2.258-3.67-2.266 3.67h-3.953l3.953-5.96-3.593-5.49zm19.921-0.19v11.64h-3.218v-7.63c-0.521 0.4-1.025 0.72-1.512 0.96-0.487 0.25-1.098 0.48-1.832 0.71v-2.61c1.083-0.35 1.924-0.77 2.523-1.26s1.068-1.09 1.407-1.81h2.632zm3.477 5.87c0-2.18 0.392-3.7 1.176-4.57s1.978-1.3 3.582-1.3c0.771 0 1.403 0.09 1.898 0.28s0.899 0.44 1.211 0.74c0.313 0.31 0.559 0.63 0.738 0.96 0.18 0.34 0.325 0.73 0.434 1.18 0.214 0.85 0.32 1.75 0.32 2.67 0 2.08-0.351 3.6-1.054 4.56-0.703 0.97-1.914 1.45-3.633 1.45-0.964 0-1.742-0.15-2.336-0.46s-1.081-0.76-1.461-1.35c-0.276-0.42-0.491-1-0.645-1.73-0.153-0.73-0.23-1.54-0.23-2.43zm3.156 0.01c0 1.46 0.129 2.45 0.387 2.99 0.258 0.53 0.631 0.8 1.121 0.8 0.323 0 0.603-0.12 0.84-0.34 0.237-0.23 0.411-0.59 0.523-1.08s0.168-1.25 0.168-2.28c0-1.53-0.129-2.55-0.386-3.07-0.258-0.52-0.645-0.79-1.161-0.79-0.526 0-0.906 0.27-1.14 0.8-0.235 0.54-0.352 1.53-0.352 2.97zm7.531-0.01c0-2.18 0.392-3.7 1.176-4.57s1.978-1.3 3.582-1.3c0.771 0 1.404 0.09 1.899 0.28s0.898 0.44 1.211 0.74c0.312 0.31 0.558 0.63 0.738 0.96 0.18 0.34 0.324 0.73 0.434 1.18 0.213 0.85 0.32 1.75 0.32 2.67 0 2.08-0.352 3.6-1.055 4.56-0.703 0.97-1.914 1.45-3.633 1.45-0.963 0-1.742-0.15-2.336-0.46-0.593-0.31-1.08-0.76-1.46-1.35-0.277-0.42-0.491-1-0.645-1.73s-0.231-1.54-0.231-2.43zm3.157 0.01c0 1.46 0.129 2.45 0.386 2.99 0.258 0.53 0.632 0.8 1.122 0.8 0.322 0 0.602-0.12 0.839-0.34 0.237-0.23 0.412-0.59 0.524-1.08s0.168-1.25 0.168-2.28c0-1.53-0.129-2.55-0.387-3.07s-0.644-0.79-1.16-0.79c-0.526 0-0.906 0.27-1.141 0.8-0.234 0.54-0.351 1.53-0.351 2.97z" />
    <path
       id="flowRoot16890"
       style="stroke:#ffffff;fill:#ffffff"
       transform="matrix(.91783 0 0 1.1565 344.12 13.073)"
       d="m70.025 160.85v8.74h-2.414v-5.72c-0.39 0.29-0.768 0.53-1.133 0.72-0.366 0.18-0.824 0.36-1.374 0.52v-1.95c0.812-0.27 1.443-0.58 1.892-0.95 0.449-0.36 0.801-0.82 1.055-1.36h1.974zm2.608 4.41c0-1.63 0.294-2.78 0.882-3.43s1.483-0.98 2.686-0.98c0.578 0 1.053 0.07 1.424 0.22 0.371 0.14 0.674 0.33 0.908 0.55 0.235 0.23 0.419 0.47 0.554 0.72 0.135 0.26 0.243 0.55 0.325 0.89 0.16 0.64 0.24 1.31 0.24 2 0 1.56-0.263 2.7-0.791 3.42-0.527 0.72-1.435 1.09-2.724 1.09-0.723 0-1.307-0.12-1.752-0.35-0.446-0.23-0.811-0.57-1.096-1.01-0.207-0.32-0.368-0.75-0.483-1.3-0.116-0.55-0.173-1.16-0.173-1.82zm2.367 0.01c0 1.09 0.097 1.84 0.29 2.24s0.474 0.6 0.841 0.6c0.242 0 0.452-0.09 0.63-0.26 0.177-0.17 0.308-0.44 0.392-0.8 0.084-0.37 0.126-0.94 0.126-1.72 0-1.14-0.096-1.91-0.29-2.3-0.193-0.39-0.483-0.59-0.87-0.59-0.394 0-0.68 0.2-0.855 0.6-0.176 0.4-0.264 1.14-0.264 2.23z" />
    <path
       id="flowRoot16898"
       style="stroke:#ffffff;fill:#ffffff"
       transform="matrix(.96983 0 0 .96983 323.26 66.443)"
       d="m27.652 195.48v-10.02h1.327v4.12h5.209v-4.12h1.326v10.02h-1.326v-4.72h-5.209v4.72h-1.327zm9.673-4.88c0-1.66 0.447-2.96 1.34-3.9 0.893-0.95 2.046-1.42 3.459-1.42 0.925 0 1.759 0.23 2.502 0.67s1.309 1.06 1.699 1.85c0.389 0.79 0.584 1.68 0.584 2.69s-0.205 1.92-0.615 2.72c-0.41 0.81-0.991 1.41-1.743 1.83-0.752 0.41-1.563 0.61-2.434 0.61-0.943 0-1.786-0.22-2.529-0.68-0.743-0.45-1.306-1.08-1.689-1.87-0.382-0.78-0.574-1.62-0.574-2.5zm1.367 0.02c0 1.21 0.325 2.16 0.975 2.86 0.649 0.69 1.464 1.04 2.443 1.04 0.998 0 1.82-0.35 2.465-1.05 0.645-0.71 0.967-1.7 0.967-2.99 0-0.82-0.138-1.53-0.414-2.14-0.275-0.61-0.679-1.08-1.21-1.41-0.53-0.34-1.126-0.5-1.787-0.5-0.939 0-1.747 0.32-2.423 0.96-0.677 0.65-1.016 1.72-1.016 3.23zm16.496-5.16h1.326v5.79c0 1.01-0.114 1.81-0.342 2.4s-0.639 1.08-1.234 1.45-1.375 0.55-2.341 0.55c-0.939 0-1.707-0.16-2.304-0.48s-1.023-0.79-1.278-1.41c-0.256-0.61-0.383-1.45-0.383-2.51v-5.79h1.326v5.79c0 0.87 0.081 1.51 0.243 1.92 0.161 0.41 0.439 0.73 0.834 0.95 0.394 0.23 0.876 0.34 1.445 0.34 0.976 0 1.671-0.22 2.085-0.67 0.415-0.44 0.622-1.29 0.623-2.54v-5.79zm3.561 10.02v-10.02h4.443c0.894 0 1.573 0.09 2.037 0.27 0.465 0.18 0.837 0.5 1.115 0.96 0.278 0.45 0.417 0.95 0.417 1.51 0 0.71-0.23 1.31-0.691 1.79-0.46 0.49-1.171 0.8-2.132 0.93 0.35 0.17 0.617 0.34 0.799 0.5 0.388 0.36 0.755 0.8 1.101 1.34l1.743 2.72h-1.668l-1.326-2.08c-0.387-0.6-0.706-1.06-0.957-1.38s-0.475-0.54-0.673-0.67c-0.199-0.13-0.4-0.22-0.605-0.27-0.151-0.03-0.397-0.05-0.739-0.05h-1.538v4.45h-1.326zm1.326-5.6h2.851c0.606 0 1.08-0.06 1.422-0.18 0.341-0.13 0.601-0.33 0.779-0.6 0.178-0.28 0.267-0.58 0.267-0.9 0-0.48-0.172-0.87-0.517-1.17-0.344-0.31-0.887-0.46-1.63-0.46h-3.172v3.31zm8.32 2.38l1.251-0.11c0.059 0.51 0.197 0.92 0.413 1.24 0.217 0.32 0.553 0.58 1.008 0.78 0.456 0.2 0.969 0.29 1.538 0.29 0.506 0 0.953-0.07 1.34-0.22 0.388-0.15 0.676-0.36 0.865-0.62s0.284-0.55 0.284-0.86-0.091-0.59-0.274-0.82c-0.182-0.24-0.483-0.43-0.902-0.59-0.269-0.11-0.864-0.27-1.784-0.49-0.921-0.22-1.566-0.43-1.935-0.63-0.478-0.25-0.835-0.56-1.07-0.93-0.234-0.37-0.352-0.79-0.352-1.25 0-0.5 0.144-0.98 0.431-1.42s0.706-0.77 1.258-1c0.551-0.23 1.164-0.34 1.839-0.34 0.743 0 1.398 0.12 1.965 0.36s1.004 0.59 1.309 1.06c0.305 0.46 0.469 0.99 0.492 1.58l-1.271 0.09c-0.069-0.63-0.3-1.11-0.694-1.43-0.394-0.33-0.976-0.49-1.747-0.49-0.802 0-1.386 0.15-1.753 0.44s-0.55 0.65-0.55 1.06c0 0.36 0.13 0.66 0.389 0.89 0.256 0.23 0.922 0.47 2 0.72 1.078 0.24 1.817 0.45 2.218 0.64 0.583 0.26 1.014 0.61 1.292 1.02s0.417 0.89 0.417 1.42c0 0.54-0.153 1.04-0.458 1.51s-0.744 0.84-1.316 1.1-1.216 0.39-1.931 0.39c-0.907 0-1.667-0.13-2.28-0.39-0.613-0.27-1.094-0.66-1.442-1.2-0.349-0.53-0.532-1.13-0.55-1.8z" />
    <path
       id="flowRoot16906"
       style="stroke:#ffffff;fill:#ffffff"
       transform="matrix(.96983 0 0 .96983 253.69 24.075)"
       d="m32.859 232.57c0-3.13 0.763-5.77 2.289-7.92 1.526-2.16 3.566-3.24 6.118-3.24 5.323 0 7.984 3.89 7.984 11.66 0 3.64-0.719 6.54-2.156 8.7-1.438 2.17-3.453 3.25-6.047 3.25-2.792 0-4.854-1-6.188-3-1.333-2-2-5.15-2-9.45zm4.219 0.28c0 3.05 0.297 5.3 0.891 6.74 0.593 1.43 1.578 2.15 2.953 2.15 1.489 0 2.547-0.65 3.172-1.94 0.625-1.3 0.937-3.61 0.937-6.93 0-3.1-0.299-5.23-0.898-6.41s-1.581-1.77-2.945-1.77c-2.74 0-4.11 2.72-4.11 8.16z" />
    <path
       id="flowRoot16914"
       style="stroke:#ffffff;fill:#ffffff"
       transform="matrix(.96983 0 0 .96983 225.53 -39.08)"
       d="m34.266 242.98l1.609-3.35c1.656 1.29 3.078 1.94 4.266 1.94 2.625 0 3.937-1.61 3.937-4.84 0-1.56-0.297-2.69-0.89-3.4-0.594-0.72-1.589-1.07-2.985-1.07-1.26 0-2.489 0.62-3.687 1.86l-1.61-1.05v-11.34h12.328v3.45h-8.422v4.09c0.688-0.31 1.511-0.47 2.469-0.47 2.25 0 3.982 0.66 5.196 1.96 1.213 1.3 1.82 3.14 1.82 5.53 0 5.82-2.714 8.73-8.141 8.73-2.25 0-4.213-0.68-5.89-2.04z" />
    <path
       id="flowRoot16924"
       style="stroke:#ffffff;fill:#ffffff"
       transform="matrix(.96983 0 0 .96983 220.89 -109.99)"
       d="m40.578 244.71v-16.5l-4.656 2.8v-3.91c2.989-1.45 5.354-3.24 7.094-5.37h1.625v22.98h-4.063zm11.031-12.14c0-3.13 0.763-5.77 2.289-7.92 1.526-2.16 3.566-3.24 6.118-3.24 5.323 0 7.984 3.89 7.984 11.66 0 3.64-0.719 6.54-2.156 8.7-1.438 2.17-3.453 3.25-6.047 3.25-2.792 0-4.854-1-6.188-3-1.333-2-2-5.15-2-9.45zm4.219 0.28c0 3.05 0.297 5.3 0.891 6.74 0.593 1.43 1.578 2.15 2.953 2.15 1.489 0 2.547-0.65 3.172-1.94 0.625-1.3 0.937-3.61 0.937-6.93 0-3.1-0.299-5.23-0.898-6.41s-1.581-1.77-2.945-1.77c-2.74 0-4.11 2.72-4.11 8.16z" />
    <path
       id="flowRoot16934"
       style="stroke:#ffffff;fill:#ffffff"
       transform="matrix(.96983 0 0 .96983 275.73 -159.32)"
       d="m40.578 244.71v-16.5l-4.656 2.8v-3.91c2.989-1.45 5.354-3.24 7.094-5.37h1.625v22.98h-4.063zm12.438-1.73l1.609-3.35c1.656 1.29 3.078 1.94 4.266 1.94 2.625 0 3.937-1.61 3.937-4.84 0-1.56-0.297-2.69-0.89-3.4-0.594-0.72-1.589-1.07-2.985-1.07-1.26 0-2.489 0.62-3.687 1.86l-1.61-1.05v-11.34h12.328v3.45h-8.422v4.09c0.688-0.31 1.511-0.47 2.469-0.47 2.25 0 3.982 0.66 5.196 1.96 1.213 1.3 1.82 3.14 1.82 5.53 0 5.82-2.714 8.73-8.141 8.73-2.25 0-4.213-0.68-5.89-2.04z" />
    <path
       id="flowRoot16944"
       style="stroke:#ffffff;fill:#ffffff"
       transform="matrix(.96983 0 0 .96983 352.95 -163.19)"
       d="m34.109 244.71v-1.19l7.25-10.67c1.448-2.13 2.172-3.93 2.172-5.39 0-1.73-1.036-2.59-3.109-2.59-1.583 0-2.86 0.84-3.828 2.51l-2.735-2.15c0.542-1.1 1.394-2.01 2.555-2.73 1.162-0.72 2.445-1.09 3.852-1.09 2.343 0 4.177 0.54 5.5 1.61 1.323 1.06 1.984 2.54 1.984 4.44 0 1.74-0.849 3.91-2.547 6.5l-4.687 7.14h8.593v3.61h-15zm17.5-12.14c0-3.13 0.763-5.77 2.289-7.92 1.526-2.16 3.566-3.24 6.118-3.24 5.323 0 7.984 3.89 7.984 11.66 0 3.64-0.719 6.54-2.156 8.7-1.438 2.17-3.453 3.25-6.047 3.25-2.792 0-4.854-1-6.188-3-1.333-2-2-5.15-2-9.45zm4.219 0.28c0 3.05 0.297 5.3 0.891 6.74 0.593 1.43 1.578 2.15 2.953 2.15 1.489 0 2.547-0.65 3.172-1.94 0.625-1.3 0.937-3.61 0.937-6.93 0-3.1-0.299-5.23-0.898-6.41s-1.581-1.77-2.945-1.77c-2.74 0-4.11 2.72-4.11 8.16z" />
    <path
       id="flowRoot16954"
       style="stroke:#ffffff;fill:#ffffff"
       transform="matrix(.96983 0 0 .96983 432.31 -47.66)"
       d="m33.922 242.79l2.031-3.14c1.208 1.28 2.521 1.92 3.938 1.92 2.583 0 3.875-1.21 3.875-3.64 0-1.1-0.375-2-1.125-2.7-0.75-0.69-1.761-1.04-3.032-1.04h-0.718v-3.34h0.609c2.333 0 3.5-0.97 3.5-2.92 0-2.04-1.089-3.06-3.266-3.06-1.125 0-2.218 0.53-3.281 1.59l-1.906-2.8c0.489-0.6 1.255-1.13 2.297-1.57 1.041-0.45 2.083-0.68 3.125-0.68 2.281 0 4.06 0.52 5.336 1.57 1.276 1.04 1.914 2.5 1.914 4.37 0 2.23-0.959 3.93-2.875 5.09 2.427 1.17 3.64 3.08 3.64 5.72 0 2.18-0.721 3.87-2.164 5.07-1.442 1.19-3.435 1.79-5.976 1.79-2.313 0-4.287-0.74-5.922-2.23zm17.687-10.22c0-3.13 0.763-5.77 2.289-7.92 1.526-2.16 3.566-3.24 6.118-3.24 5.323 0 7.984 3.89 7.984 11.66 0 3.64-0.719 6.54-2.156 8.7-1.438 2.17-3.453 3.25-6.047 3.25-2.792 0-4.854-1-6.188-3-1.333-2-2-5.15-2-9.45zm4.219 0.28c0 3.05 0.297 5.3 0.891 6.74 0.593 1.43 1.578 2.15 2.953 2.15 1.489 0 2.547-0.65 3.172-1.94 0.625-1.3 0.937-3.61 0.937-6.93 0-3.1-0.299-5.23-0.898-6.41s-1.581-1.77-2.945-1.77c-2.74 0-4.11 2.72-4.11 8.16z" />
    <path
       id="flowRoot16962"
       style="stroke:#ffffff;fill:#ffffff"
       transform="matrix(.96983 0 0 .96983 413.48 -124.42)"
       d="m34.109 244.71v-1.19l7.25-10.67c1.448-2.13 2.172-3.93 2.172-5.39 0-1.73-1.036-2.59-3.109-2.59-1.583 0-2.86 0.84-3.828 2.51l-2.735-2.15c0.542-1.1 1.394-2.01 2.555-2.73 1.162-0.72 2.445-1.09 3.852-1.09 2.343 0 4.177 0.54 5.5 1.61 1.323 1.06 1.984 2.54 1.984 4.44 0 1.74-0.849 3.91-2.547 6.5l-4.687 7.14h8.593v3.61h-15zm18.907-1.73l1.609-3.35c1.656 1.29 3.078 1.94 4.266 1.94 2.625 0 3.937-1.61 3.937-4.84 0-1.56-0.297-2.69-0.89-3.4-0.594-0.72-1.589-1.07-2.985-1.07-1.26 0-2.489 0.62-3.687 1.86l-1.61-1.05v-11.34h12.328v3.45h-8.422v4.09c0.688-0.31 1.511-0.47 2.469-0.47 2.25 0 3.982 0.66 5.196 1.96 1.213 1.3 1.82 3.14 1.82 5.53 0 5.82-2.714 8.73-8.141 8.73-2.25 0-4.213-0.68-5.89-2.04z" />
    <path
       id="flowRoot16970"
       style="stroke:#ffffff;fill:#ffffff"
       transform="matrix(.96983 0 0 .96983 397.28 25.268)"
       d="m33.922 242.79l2.031-3.14c1.208 1.28 2.521 1.92 3.938 1.92 2.583 0 3.875-1.21 3.875-3.64 0-1.1-0.375-2-1.125-2.7-0.75-0.69-1.761-1.04-3.032-1.04h-0.718v-3.34h0.609c2.333 0 3.5-0.97 3.5-2.92 0-2.04-1.089-3.06-3.266-3.06-1.125 0-2.218 0.53-3.281 1.59l-1.906-2.8c0.489-0.6 1.255-1.13 2.297-1.57 1.041-0.45 2.083-0.68 3.125-0.68 2.281 0 4.06 0.52 5.336 1.57 1.276 1.04 1.914 2.5 1.914 4.37 0 2.23-0.959 3.93-2.875 5.09 2.427 1.17 3.64 3.08 3.64 5.72 0 2.18-0.721 3.87-2.164 5.07-1.442 1.19-3.435 1.79-5.976 1.79-2.313 0-4.287-0.74-5.922-2.23zm19.094 0.19l1.609-3.35c1.656 1.29 3.078 1.94 4.266 1.94 2.625 0 3.937-1.61 3.937-4.84 0-1.56-0.297-2.69-0.89-3.4-0.594-0.72-1.589-1.07-2.985-1.07-1.26 0-2.489 0.62-3.687 1.86l-1.61-1.05v-11.34h12.328v3.45h-8.422v4.09c0.688-0.31 1.511-0.47 2.469-0.47 2.25 0 3.982 0.66 5.196 1.96 1.213 1.3 1.82 3.14 1.82 5.53 0 5.82-2.714 8.73-8.141 8.73-2.25 0-4.213-0.68-5.89-2.04z" />
    <path
       id="flowRoot16984"
       style="stroke:#ffffff;fill:#ffffff"
       transform="matrix(.96983 0 0 .96983 280.29 99.956)"
       d="m48.727 126.31c0-2.72 0.489-4.63 1.469-5.71 0.98-1.09 2.473-1.64 4.478-1.64 0.963 0 1.754 0.12 2.373 0.36 0.618 0.24 1.123 0.55 1.514 0.93 0.39 0.38 0.698 0.78 0.922 1.2 0.225 0.42 0.406 0.91 0.542 1.47 0.267 1.07 0.401 2.18 0.401 3.34 0 2.6-0.44 4.5-1.319 5.7-0.878 1.21-2.392 1.81-4.541 1.81-1.204 0-2.177-0.19-2.92-0.58-0.742-0.38-1.35-0.94-1.826-1.69-0.345-0.52-0.613-1.25-0.805-2.16s-0.288-1.93-0.288-3.03zm3.945 0.01c0 1.82 0.161 3.07 0.483 3.73 0.323 0.67 0.79 1 1.402 1 0.403 0 0.753-0.14 1.049-0.42 0.297-0.28 0.515-0.73 0.655-1.34 0.14-0.62 0.21-1.57 0.21-2.86 0-1.91-0.161-3.18-0.484-3.84-0.322-0.65-0.805-0.98-1.45-0.98-0.657 0-1.133 0.33-1.426 1s-0.439 1.9-0.439 3.71zm18.486-0.49c-0.625-0.33-1.081-0.7-1.367-1.11-0.391-0.56-0.586-1.21-0.586-1.94 0-1.2 0.563-2.18 1.69-2.94 0.878-0.58 2.041-0.88 3.486-0.88 1.914 0 3.328 0.37 4.243 1.1s1.372 1.65 1.372 2.75c0 0.65-0.182 1.25-0.547 1.81-0.273 0.42-0.703 0.82-1.289 1.21 0.775 0.37 1.353 0.86 1.734 1.47 0.38 0.62 0.571 1.29 0.571 2.04 0 0.71-0.165 1.38-0.493 2-0.329 0.62-0.733 1.1-1.211 1.44-0.479 0.34-1.074 0.59-1.787 0.75s-1.473 0.24-2.281 0.24c-1.517 0-2.675-0.18-3.476-0.54s-1.41-0.88-1.826-1.58c-0.417-0.7-0.625-1.47-0.625-2.33 0-0.84 0.195-1.56 0.586-2.14 0.39-0.58 0.992-1.03 1.806-1.35zm1.787-2.81c0 0.49 0.155 0.89 0.464 1.19 0.309 0.31 0.721 0.46 1.236 0.46 0.455 0 0.83-0.15 1.123-0.45s0.439-0.69 0.439-1.16c0-0.5-0.153-0.9-0.459-1.21s-0.697-0.46-1.172-0.46c-0.482 0-0.874 0.15-1.177 0.45-0.302 0.3-0.454 0.7-0.454 1.18zm-0.215 6.16c0 0.63 0.193 1.15 0.577 1.55s0.823 0.6 1.318 0.6c0.475 0 0.902-0.21 1.279-0.61 0.378-0.41 0.567-0.93 0.567-1.55 0-0.63-0.191-1.15-0.572-1.55-0.38-0.41-0.822-0.61-1.323-0.61-0.495 0-0.926 0.2-1.294 0.59s-0.552 0.91-0.552 1.58zm17.686-9.97h9.443v3.17h-6.396l-0.342 2.15c0.443-0.21 0.881-0.36 1.314-0.47 0.433-0.1 0.861-0.15 1.284-0.15 1.432 0 2.594 0.43 3.486 1.29 0.895 0.87 1.335 1.96 1.335 3.28 0 0.92-0.23 1.81-0.686 2.66-0.459 0.85-1.11 1.51-1.953 1.96-0.843 0.44-1.922 0.67-3.237 0.67-0.944 0-1.753-0.09-2.427-0.27s-1.246-0.45-1.718-0.8c-0.472-0.36-0.855-0.76-1.148-1.21s-0.537-1.01-0.732-1.68l4.023-0.44c0.098 0.65 0.326 1.14 0.684 1.47 0.358 0.34 0.784 0.51 1.279 0.51 0.553 0 1.011-0.21 1.372-0.63s0.542-1.05 0.542-1.88c0-0.86-0.182-1.48-0.547-1.88-0.364-0.39-0.849-0.59-1.455-0.59-0.384 0-0.755 0.09-1.113 0.28-0.267 0.14-0.56 0.38-0.879 0.74l-3.389-0.49 1.26-7.69zm29.944 3.22l-3.96 0.49c-0.1-0.55-0.28-0.94-0.52-1.17s-0.55-0.34-0.9-0.34c-0.65 0-1.15 0.32-1.51 0.97-0.26 0.47-0.45 1.47-0.57 3.01 0.47-0.48 0.96-0.84 1.46-1.07s1.08-0.35 1.74-0.35c1.28 0 2.35 0.46 3.24 1.37 0.88 0.91 1.32 2.07 1.32 3.47 0 0.94-0.22 1.8-0.67 2.59-0.44 0.78-1.06 1.37-1.85 1.77-0.8 0.4-1.79 0.6-2.98 0.6-1.43 0-2.58-0.25-3.45-0.73-0.86-0.49-1.55-1.27-2.07-2.34s-0.78-2.49-0.78-4.26c0-2.58 0.55-4.47 1.63-5.67 1.09-1.21 2.6-1.81 4.53-1.81 1.13 0 2.04 0.14 2.7 0.4s1.21 0.65 1.64 1.16c0.44 0.5 0.77 1.14 1 1.91zm-7.33 6.38c0 0.77 0.2 1.38 0.59 1.82s0.87 0.66 1.43 0.66c0.53 0 0.96-0.2 1.31-0.6 0.35-0.39 0.53-0.99 0.53-1.77 0-0.81-0.18-1.43-0.55-1.85-0.36-0.42-0.81-0.64-1.35-0.64-0.56 0-1.02 0.21-1.4 0.62-0.37 0.41-0.56 1-0.56 1.76z" />
    <path
       id="flowRoot7399"
       style="stroke:#ffffff;fill:#000000"
       transform="matrix(.96983 0 0 .96983 358.12 99.956)"
       d="m51.119 125.83c-0.625-0.33-1.081-0.7-1.367-1.11-0.391-0.56-0.586-1.21-0.586-1.94 0-1.2 0.563-2.18 1.689-2.94 0.879-0.58 2.041-0.88 3.487-0.88 1.914 0 3.328 0.37 4.243 1.1s1.372 1.65 1.372 2.75c0 0.65-0.182 1.25-0.547 1.81-0.273 0.42-0.703 0.82-1.289 1.21 0.775 0.37 1.353 0.86 1.733 1.47 0.381 0.62 0.572 1.29 0.572 2.04 0 0.71-0.165 1.38-0.493 2-0.329 0.62-0.733 1.1-1.211 1.44-0.479 0.34-1.075 0.59-1.787 0.75-0.713 0.16-1.473 0.24-2.281 0.24-1.517 0-2.675-0.18-3.476-0.54s-1.41-0.88-1.826-1.58c-0.417-0.7-0.625-1.47-0.625-2.33 0-0.84 0.195-1.56 0.585-2.14 0.391-0.58 0.993-1.03 1.807-1.35zm1.787-2.81c0 0.49 0.155 0.89 0.464 1.19 0.309 0.31 0.721 0.46 1.235 0.46 0.456 0 0.831-0.15 1.124-0.45 0.292-0.3 0.439-0.69 0.439-1.16 0-0.5-0.153-0.9-0.459-1.21s-0.697-0.46-1.172-0.46c-0.482 0-0.874 0.15-1.177 0.45-0.302 0.3-0.454 0.7-0.454 1.18zm-0.215 6.16c0 0.63 0.192 1.15 0.577 1.55 0.384 0.4 0.823 0.6 1.318 0.6 0.475 0 0.902-0.21 1.279-0.61 0.378-0.41 0.567-0.93 0.567-1.55 0-0.63-0.191-1.15-0.572-1.55-0.381-0.41-0.822-0.61-1.323-0.61-0.495 0-0.926 0.2-1.294 0.59s-0.552 0.91-0.552 1.58z" />
  </g>
  <metadata
     id="metadata62">
    <rdf:RDF>
      <cc:Work>
        <dc:format>image/svg+xml</dc:format>
        <dc:type
           rdf:resource="http://purl.org/dc/dcmitype/StillImage" />
        <cc:license
           rdf:resource="http://creativecommons.org/licenses/publicdomain/" />
        <dc:publisher>
          <cc:Agent
             rdf:about="http://openclipart.org/">
            <dc:title>Openclipart</dc:title>
          </cc:Agent>
        </dc:publisher>
        <dc:title>Cessna Type Aircraft Tachometer</dc:title>
        <dc:date>2008-07-19T20:42:47</dc:date>
        <dc:description>This is a Engine Tachometer common to many types of General Aviation aircraft. It is color-coded for the Cessna type engine and prop limits. The color coding can be modified as needed for a particular type of aircraft.</dc:description>
        <dc:source>https://openclipart.org/detail/17962/cessna-type-aircraft-tachometer-by-startright</dc:source>
        <dc:creator>
          <cc:Agent>
            <dc:title>Startright</dc:title>
          </cc:Agent>
        </dc:creator>
        <dc:subject>
          <rdf:Bag>
            <rdf:li>cessna</rdf:li>
            <rdf:li>engine guage</rdf:li>
            <rdf:li>rpm</rdf:li>
            <rdf:li>tach</rdf:li>
            <rdf:li>tachometer</rdf:li>
          </rdf:Bag>
        </dc:subject>
      </cc:Work>
      <cc:License
         rdf:about="http://creativecommons.org/licenses/publicdomain/">
        <cc:permits
           rdf:resource="http://creativecommons.org/ns#Reproduction" />
        <cc:permits
           rdf:resource="http://creativecommons.org/ns#Distribution" />
        <cc:permits
           rdf:resource="http://creativecommons.org/ns#DerivativeWorks" />
      </cc:License>
    </rdf:RDF>
  </metadata>
</svg>
