<?xml version="1.0" encoding="iso-8859-1"?>
<!-- Uploaded to: SVG Repo, www.svgrepo.com, Generator: SVG Repo Mixer Tools -->
<svg version="1.1" id="Layer_1" xmlns="http://www.w3.org/2000/svg" xmlns:xlink="http://www.w3.org/1999/xlink" 
	 viewBox="0 0 501.551 501.551" xml:space="preserve">
<path style="fill:#FF7058;" d="M480.653,0H20.898C9.404,0,0,9.404,0,20.898v138.971h501.551V20.898
	C501.551,9.404,492.147,0,480.653,0z"/>
<path style="fill:#F2F2F2;" d="M0,159.869v320.784c0,11.494,9.404,20.898,20.898,20.898h459.755
	c11.494,0,20.898-9.404,20.898-20.898V159.869H0z"/>
<rect x="36.571" y="196.441" style="fill:#FFFFFF;" width="428.408" height="212.114"/>
<rect x="36.571" y="444.082" style="fill:#CDD6E0;" width="428.408" height="20.898"/>
<polygon style="fill:#ACB3BA;" points="379.298,425.273 358.4,425.273 336.457,425.273 336.457,482.743 358.4,482.743 
	379.298,482.743 "/>
<circle style="fill:#FFD15C;" cx="55.38" cy="80.457" r="21.943"/>
<circle style="fill:#84DBFF;" cx="125.388" cy="80.457" r="21.943"/>
<circle style="fill:#F2F2F2;" cx="195.396" cy="80.457" r="21.943"/>
<path style="fill:#40596B;" d="M193.306,242.416V362.58c0,8.359,9.404,13.584,15.673,8.359l94.041-60.604
	c6.269-4.18,6.269-13.584,0-17.763l-94.041-60.604C202.71,228.833,193.306,234.057,193.306,242.416z"/>
</svg>