<?xml version="1.0" encoding="iso-8859-1"?>
<!-- Uploaded to: SVG Repo, www.svgrepo.com, Generator: SVG Repo Mixer Tools -->
<svg height="800px" width="800px" version="1.1" id="Layer_1" xmlns="http://www.w3.org/2000/svg" xmlns:xlink="http://www.w3.org/1999/xlink" 
	 viewBox="0 0 512 512" xml:space="preserve">
<path style="fill:#263B74;" d="M232.038,361.812L256,384.18l24.232-22.619l-0.004-0.003l0.004,0.003l218.765-203.849
	c-3.639-6.313-10.441-10.22-18.251-10.22H31.254c-7.81,0-14.611,3.908-18.251,10.22L232.038,361.812"/>
<path style="fill:#6A81B5;" d="M232.038,361.812L256,384.18l24.232-22.619l-0.004-0.003l0.004,0.003l60.516-118.554
	c-3.639-6.313,10.619-95.517,2.809-95.517H31.254c-7.81,0-14.611,3.908-18.251,10.22L232.038,361.812"/>
<path style="fill:#E6E6E6;" d="M434.392,0H77.608c-11.636,0-21.07,8.731-21.07,20.368v197.3c0,5.841,2.424,11.417,6.693,15.402
	l178.392,166.512c4.048,3.779,9.212,5.666,14.377,5.666s10.33-1.889,14.378-5.668l178.391-166.522
	c4.269-3.985,6.693-9.563,6.693-15.402V20.368C455.462,8.731,446.029,0,434.392,0z"/>
<path style="fill:#F5F5F5;" d="M256,0H77.608c-11.636,0-21.07,8.731-21.07,20.368v197.3c0,5.841,2.424,11.417,6.693,15.402
	l178.392,166.512c4.048,3.779,9.212,5.666,14.377,5.666V0z"/>
<path style="fill:#F66131;" d="M497.501,503.67c2.697-3.541,4.315-7.946,4.315-12.74V167.857c0-3.826-1.037-7.405-2.819-10.498
	L280.232,361.56L497.501,503.67z"/>
<path style="fill:#E34F1F;" d="M280.232,361.56l-14.648,13.673c-5.397,5.037-13.773,5.037-19.169,0l-14.378-13.42L14.512,503.686
	c3.85,5.044,9.907,8.314,16.742,8.314h449.492c6.842,0,12.905-3.277,16.755-8.33L280.232,361.56z"/>
<path style="fill:#F66131;" d="M256,379.011c-3.443,0-6.887-1.26-9.585-3.779l-14.378-13.42L14.512,503.686
	c3.85,5.044,9.907,8.314,16.742,8.314H256V379.011z"/>
<path style="fill:#F68B4D;" d="M13.003,157.359c-1.783,3.093-2.819,6.671-2.819,10.498V490.93c0,4.801,1.624,9.212,4.328,12.756
	l217.526-141.874L13.003,157.359z"/>
</svg>