<?xml version="1.0" standalone="no"?>
<!DOCTYPE svg PUBLIC "-//W3C//DTD SVG 20010904//EN"
 "http://www.w3.org/TR/2001/REC-SVG-20010904/DTD/svg10.dtd">
<svg version="1.0" xmlns="http://www.w3.org/2000/svg"
 width="512.000000pt" height="512.000000pt" viewBox="0 0 512.000000 512.000000"
 preserveAspectRatio="xMidYMid meet">
<metadata>
Created by potrace 1.11, written by Peter Selinger 2001-2013
</metadata>
<g transform="translate(0.000000,512.000000) scale(0.100000,-0.100000)"
fill="#000000" stroke="none">
<path d="M2107 4412 l-107 -107 0 -113 0 -112 110 0 110 0 0 -60 0 -60 -220 0
-220 0 0 -165 0 -165 220 0 220 0 0 -54 c0 -40 -4 -55 -16 -60 -9 -3 -185 -6
-393 -6 l-377 0 -74 -100 c-41 -55 -75 -100 -77 -100 -1 0 0 6 3 13 3 10 -76
36 -298 99 -167 47 -305 84 -306 83 -10 -9 -60 -201 -54 -206 4 -4 121 -39
261 -79 211 -60 258 -71 273 -61 11 7 1 -12 -21 -42 l-41 -54 0 -106 0 -107
55 0 55 0 0 -120 0 -120 -395 0 -395 0 1 -107 0 -108 48 -36 c61 -47 125 -142
152 -228 19 -58 23 -95 27 -299 2 -127 8 -232 12 -232 5 0 29 23 53 51 l45 51
59 -59 c129 -132 346 -185 547 -133 103 26 169 63 239 133 l57 58 58 -58 c69
-70 135 -107 238 -133 99 -26 209 -26 308 0 103 26 169 63 239 133 l57 58 58
-58 c69 -70 135 -107 238 -133 200 -51 418 1 547 132 l57 59 58 -59 c105 -107
256 -160 426 -149 50 3 115 13 144 22 l52 16 0 163 c0 160 0 164 30 222 56
112 242 288 449 425 l81 54 0 107 0 108 -395 0 -395 0 0 112 0 111 -42 56
c-23 31 -52 70 -64 86 l-23 30 22 1 c19 2 800 174 803 178 2 2 -46 209 -49
212 -1 1 -208 -44 -460 -100 l-458 -102 -35 48 -36 48 -336 0 -337 0 3 110 3
110 -143 0 c-79 0 -180 3 -225 7 l-83 6 0 53 0 54 220 0 220 0 0 165 0 165
-220 0 -220 0 0 60 0 60 110 0 110 0 0 113 0 112 -108 108 -107 107 -120 0
-120 0 -108 -108z"/>
<path d="M724 1213 c-74 -90 -207 -155 -349 -169 l-65 -7 0 -223 0 -224 2250
0 2250 0 0 224 0 223 -65 7 c-142 14 -275 79 -349 169 l-38 46 -31 -41 c-134
-175 -456 -229 -687 -116 -41 20 -87 54 -125 93 l-60 61 -30 -40 c-42 -56
-143 -122 -228 -148 -102 -32 -272 -32 -374 0 -87 27 -187 93 -228 149 -16 23
-32 42 -35 42 -3 0 -18 -19 -35 -41 -41 -57 -142 -123 -228 -150 -102 -32
-272 -32 -374 0 -85 26 -186 92 -228 148 l-30 40 -60 -61 c-137 -141 -375
-192 -587 -125 -81 25 -181 91 -225 148 l-31 41 -38 -46z"/>
</g>
</svg>
