<?xml version="1.0" standalone="no"?>
<!DOCTYPE svg PUBLIC "-//W3C//DTD SVG 20010904//EN"
 "http://www.w3.org/TR/2001/REC-SVG-20010904/DTD/svg10.dtd">
<svg version="1.0" xmlns="http://www.w3.org/2000/svg"
 width="512.000000pt" height="512.000000pt" viewBox="0 0 512.000000 512.000000"
 preserveAspectRatio="xMidYMid meet">
<metadata>
Created by potrace 1.11, written by Peter Selinger 2001-2013
</metadata>
<g transform="translate(0.000000,512.000000) scale(0.100000,-0.100000)"
fill="#000000" stroke="none">
<path d="M2410 5109 c-271 -15 -542 -75 -792 -175 -655 -262 -1170 -777 -1432
-1432 -121 -302 -177 -599 -177 -942 0 -343 56 -640 177 -942 262 -655 777
-1170 1432 -1432 454 -182 976 -227 1468 -126 475 98 928 344 1279 695 406
406 653 911 731 1494 20 153 20 469 0 622 -78 583 -325 1088 -731 1494 -518
518 -1220 785 -1955 744z m1838 -1281 c19 -19 17 -2511 -1 -2527 -14 -11
-3358 -18 -3377 -6 -16 10 -13 2518 2 2533 17 17 3359 17 3376 0z"/>
<path d="M1001 3696 c-8 -9 -10 -206 -9 -718 l3 -705 523 533 c501 511 525
534 560 534 35 1 51 -13 337 -305 l300 -306 202 202 c197 197 203 202 235 195
36 -7 35 -6 651 -635 l327 -334 0 765 c0 581 -3 767 -12 776 -19 19 -3101 17
-3117 -2z m2610 -193 c50 -19 122 -99 137 -151 33 -108 -2 -225 -86 -289 -134
-102 -331 -50 -398 105 -9 20 -16 65 -17 98 -3 189 183 310 364 237z"/>
</g>
</svg>
