<?xml version="1.0" standalone="no"?>
<!DOCTYPE svg PUBLIC "-//W3C//DTD SVG 20010904//EN"
 "http://www.w3.org/TR/2001/REC-SVG-20010904/DTD/svg10.dtd">
<svg version="1.0" xmlns="http://www.w3.org/2000/svg"
 width="512.000000pt" height="512.000000pt" viewBox="0 0 512.000000 512.000000"
 preserveAspectRatio="xMidYMid meet">
<metadata>
Created by potrace 1.11, written by Peter Selinger 2001-2013
</metadata>
<g transform="translate(0.000000,512.000000) scale(0.100000,-0.100000)"
fill="#000000" stroke="none">
<path d="M1647 4688 c-165 -21 -318 -162 -356 -329 -7 -29 -10 -509 -8 -1399
l2 -1355 37 -75 c59 -121 157 -203 282 -236 42 -11 290 -14 1378 -14 885 0
1343 3 1374 10 159 36 305 184 330 336 4 21 7 638 7 1369 0 1459 3 1371 -59
1486 -50 90 -153 169 -264 199 -35 10 -350 13 -1355 14 -721 0 -1337 -2 -1368
-6z m1835 -1999 c34 -45 68 -86 73 -93 14 -15 244 -303 277 -346 14 -19 62
-78 105 -131 43 -53 92 -114 108 -134 17 -21 71 -90 122 -154 51 -64 93 -118
93 -121 0 -3 -572 -5 -1270 -4 -771 0 -1270 4 -1270 10 0 7 537 731 606 816
l22 27 213 -284 c117 -157 216 -285 219 -285 4 0 38 39 76 88 37 48 71 89 74
92 3 3 112 139 243 303 131 163 240 297 242 297 1 0 32 -37 67 -81z"/>
<path d="M429 3823 c0 -10 -1 -695 -1 -1523 -1 -1151 2 -1516 11 -1550 40
-148 162 -269 311 -310 35 -10 386 -13 1555 -12 831 0 1516 1 1523 1 10 1 12
47 10 213 l-3 211 -1490 1 -1490 1 0 1492 0 1493 -212 0 c-196 0 -213 -1 -214
-17z"/>
</g>
</svg>
