<?xml version="1.0" standalone="no"?>
<!DOCTYPE svg PUBLIC "-//W3C//DTD SVG 20010904//EN"
 "http://www.w3.org/TR/2001/REC-SVG-20010904/DTD/svg10.dtd">
<svg version="1.0" xmlns="http://www.w3.org/2000/svg"
 width="700.000000pt" height="700.000000pt" viewBox="0 0 700.000000 700.000000"
 preserveAspectRatio="xMidYMid meet">
<metadata>
Created by potrace 1.14, written by Peter Selinger 2001-2017
</metadata>
<g transform="translate(0.000000,700.000000) scale(0.100000,-0.100000)"
fill="#000000" stroke="none">
<path d="M2600 6122 c-14 -2 -151 -35 -305 -74 -154 -38 -323 -80 -375 -93
-183 -44 -1065 -265 -1108 -277 -53 -16 -126 -84 -143 -135 -18 -55 -19 -4030
0 -4085 28 -84 130 -150 219 -143 23 2 97 18 164 35 68 18 131 34 140 35 10 2
82 20 160 40 79 20 152 39 163 41 10 2 82 20 160 40 77 20 148 38 158 39 9 2
45 11 80 20 34 9 71 18 82 21 11 2 152 37 312 78 l293 73 837 -419 c461 -231
857 -426 881 -433 23 -7 57 -11 75 -9 38 6 300 69 372 89 28 8 181 46 340 85
160 39 304 76 320 81 17 5 197 50 400 100 228 56 386 100 411 115 51 29 92 87
102 144 4 25 7 941 6 2035 -1 1790 -2 1994 -17 2027 -32 76 -106 128 -185 131
-44 2 -116 -8 -131 -18 -4 -2 -18 -6 -32 -8 -13 -3 -44 -10 -69 -17 -25 -7
-52 -13 -60 -15 -8 -2 -71 -17 -140 -35 -69 -18 -132 -33 -140 -35 -8 -2 -275
-68 -592 -148 l-577 -144 -845 423 c-465 232 -860 426 -878 430 -44 10 -49 11
-78 6z m905 -900 l650 -327 0 -1722 c0 -948 -2 -1723 -5 -1722 -3 0 -297 147
-655 327 l-650 327 0 1723 c-1 947 2 1722 5 1721 3 0 298 -147 655 -327z"/>
</g>
</svg>
